<svg xmlns="http://www.w3.org/2000/svg" viewBox="0 0 465.96 433.93"><defs><style>.cls-1,.cls-2{fill:#ffa6a6;}.cls-2{isolation:isolate;opacity:0.7;}.cls-3,.cls-5{fill:#ff5757;}.cls-4,.cls-8{fill:none;}.cls-10,.cls-11,.cls-13,.cls-14,.cls-15,.cls-16,.cls-4,.cls-5,.cls-7,.cls-9{stroke:#263238;}.cls-10,.cls-11,.cls-13,.cls-14,.cls-15,.cls-16,.cls-4,.cls-5,.cls-7,.cls-8,.cls-9{stroke-linecap:round;stroke-linejoin:round;}.cls-14,.cls-6{fill:#92e3a9;}.cls-12,.cls-7{fill:#263238;}.cls-8{stroke:#fff;}.cls-9{fill:#fff;}.cls-10{fill:#828282;}.cls-11{fill:#bfbfbf;}.cls-13{fill:#5c5c5c;}.cls-15{fill:#9e9e9e;}.cls-16{fill:#999;}</style></defs><g id="Layer_2" data-name="Layer 2"><g id="Layer_1-2" data-name="Layer 1"><g id="freepik--background-simple--inject-2"><path class="cls-1" d="M309.61,8.34S234-18.56,159.68,24.27,47.93,152.13,15.75,220.24s-13.66,137.39,43,169S154,374.24,233.53,372s101,9.05,167-35.84,77.93-151,25.87-229.56S309.61,8.34,309.61,8.34Z"/><path class="cls-2" d="M309.61,8.34S234-18.56,159.68,24.27,47.93,152.13,15.75,220.24s-13.66,137.39,43,169S154,374.24,233.53,372s101,9.05,167-35.84,77.93-151,25.87-229.56S309.61,8.34,309.61,8.34Z"/></g><path class="cls-3" d="M442.27,189.53s0-5.62-7.86-13.48-12.92-12.36-12.92-12.36-3.93,12.92,3.37,20.79a138,138,0,0,0,17.41,15.16Z"/><path class="cls-3" d="M430.86,224.61s0-5.62-7.86-13.48-12.92-12.36-12.92-12.36-3.93,12.92,3.37,20.78a137.36,137.36,0,0,0,17.41,15.17Z"/><path class="cls-3" d="M441.81,199.1s.59-5.59,9.24-12.58S465.2,175.6,465.2,175.6s2.55,13.26-5.54,20.31a139.24,139.24,0,0,1-18.92,13.24Z"/><path class="cls-3" d="M428,240.52S429.17,235,438.51,229s15.22-9.38,15.22-9.38,1.13,13.46-7.65,19.62a139.67,139.67,0,0,1-20.21,11.18Z"/><path class="cls-3" d="M430.58,285.69s0-5.62,7.87-13.48,12.92-12.36,12.92-12.36,3.93,12.92-3.37,20.78a138.85,138.85,0,0,1-17.42,15.17Z"/><path class="cls-3" d="M430.45,296.71s.8-5.56-5.86-14.46-11-14.06-11-14.06-5.72,12.22.39,21a137.17,137.17,0,0,0,15.08,17.49Z"/><path class="cls-3" d="M422.7,329.39s0-5.62,7.86-13.48,12.92-12.36,12.92-12.36,3.93,12.92-3.37,20.78A140.3,140.3,0,0,1,422.7,339.5Z"/><path class="cls-3" d="M428,359s-1.42-5.44,4.19-15,9.37-15.23,9.37-15.23,7.08,11.5,2,21a139.8,139.8,0,0,1-13,19.08Z"/><path class="cls-4" d="M443,188.09a162.26,162.26,0,0,1-2.18,17.44c-3.11,16.06-10.88,26.42-14,40.93s5.82,33.19,3.43,51.82-9.64,29-7.57,41.43,12.95,46.1,12.95,46.1"/><line class="cls-4" x1="441.7" y1="202.83" x2="450.18" y2="196.33"/><line class="cls-4" x1="442.1" y1="195.34" x2="438.55" y2="189.03"/><path class="cls-4" d="M427.32,245.79s7.09-5.32,14.38-10.64"/><path class="cls-4" d="M430.86,234.72s-5.91-11.59-12.61-19.28"/><path class="cls-4" d="M430.86,293.68A87.59,87.59,0,0,1,446,273.38"/><path class="cls-5" d="M429.48,301.56A99.78,99.78,0,0,0,421.81,287c-4.14-6.11-4.73-6.9-4.73-6.9"/><path class="cls-4" d="M422.7,339.71a92.32,92.32,0,0,1,6.39-12.92A81.32,81.32,0,0,1,437.37,316"/><path class="cls-4" d="M430.51,368.79s-.83-6.73,2.13-12.44,6.3-13.21,7.68-16.16"/><path class="cls-3" d="M390.81,264.57s-.61-3.53,3.47-9.31,6.76-9.15,6.76-9.15,3.87,7.67.14,13.4a88.16,88.16,0,0,1-9.27,11.39Z"/><path class="cls-3" d="M401.75,285.32s-.61-3.52,3.46-9.3,6.76-9.15,6.76-9.15,3.87,7.67.15,13.39a88.33,88.33,0,0,1-9.28,11.4Z"/><path class="cls-3" d="M392.13,270.51s-1-3.44-7.16-6.88-10.06-5.31-10.06-5.31-.16,8.59,5.68,12.13a88.09,88.09,0,0,0,13.3,6.25Z"/><path class="cls-6" d="M405.27,295s-1.33-3.31-7.84-6.09-10.56-4.23-10.56-4.23.74,8.56,6.92,11.47A88,88,0,0,0,407.67,301Z"/><path class="cls-3" d="M408.55,323.6s-.61-3.53-6.39-7.6-9.45-6.35-9.45-6.35-1.06,8.53,4.37,12.67a88.75,88.75,0,0,0,12.57,7.62Z"/><path class="cls-3" d="M409.81,330.49s-1.1-3.4,2.11-9.7,5.39-10,5.39-10,4.92,7,2,13.24a88.26,88.26,0,0,1-7.55,12.6Z"/><path class="cls-3" d="M419.7,358.9s.41-3.55,5.95-7.95,9.06-6.91,9.06-6.91,1.55,8.45-3.64,12.89a89.28,89.28,0,0,1-12.1,8.33Z"/><path class="cls-3" d="M418.24,350.14s-.61-3.52-6.4-7.6-9.44-6.34-9.44-6.34-1.06,8.52,4.37,12.66a86.39,86.39,0,0,0,12.57,7.62Z"/><path class="cls-3" d="M418.16,369.29s.3-3.57-4.26-9-7.53-8.54-7.53-8.54-3.18,8,1,13.36a88,88,0,0,0,10.23,10.56Z"/><path class="cls-4" d="M390.18,263.74a100.54,100.54,0,0,0,3.24,10.7c3.7,9.74,9.69,15.39,13.22,24.15s-.05,21.44,3.47,32.87,9.2,17.13,9.25,25.15-3.12,30.32-3.12,30.32"/><line class="cls-4" x1="392.58" y1="272.84" x2="386.56" y2="269.68"/><line class="cls-4" x1="391.52" y1="268.19" x2="393.06" y2="263.85"/><path class="cls-4" d="M406.27,298.22s-5-2.57-10.18-5.11"/><path class="cls-4" d="M402.81,291.66a70.91,70.91,0,0,1,5.82-13.45"/><path class="cls-4" d="M409.24,328.64a55.8,55.8,0,0,0-11.72-11.09"/><path class="cls-4" d="M411,333.43a62.73,62.73,0,0,1,3.24-10c1.93-4.28,2.22-4.84,2.22-4.84"/><path class="cls-5" d="M419.09,362.7s4-4.89,6.47-6.72a35.64,35.64,0,0,0,4.2-3.66"/><path class="cls-4" d="M419.36,356.61A62.44,62.44,0,0,0,414,349.2a52.19,52.19,0,0,0-6.37-5.89"/><path class="cls-4" d="M417.62,375.7a15.38,15.38,0,0,0-2.69-7.57c-2.47-3.27-5.38-7.6-6.57-9.3"/><path class="cls-7" d="M441.45,433.42H410.34a2.45,2.45,0,0,1-2.45-2.45h0L400.18,383h51.44L443.9,431A2.45,2.45,0,0,1,441.45,433.42Z"/><path class="cls-7" d="M451.17,389.75h-51a4,4,0,0,1-4-4h0a4,4,0,0,1,4-4h51a4,4,0,0,1,4,4h0A4,4,0,0,1,451.17,389.75Z"/><line class="cls-8" x1="402.2" y1="389.93" x2="439.23" y2="389.93"/><line class="cls-8" x1="442.71" y1="389.93" x2="448.81" y2="389.93"/><path class="cls-5" d="M234.38,156.11s-2.6,2.6-2.34,5.2,22.36,49.15,24.7,52.53,9.1,4.42,12.23,2.6,15.34-14.82,15.34-14.82L283.7,135s-10.83,31-13.95,36-4.69,7.55-4.69,7.55-7-19.77-8.84-23.67a14.63,14.63,0,0,0-5.72-6Z"/><path class="cls-9" d="M289.09,416s-15.61,5.9-21.51,8-5.55,7.29-4.86,8.33l.7,1h55.86a14.8,14.8,0,0,0-.35-9C317.2,419.19,289.09,416,289.09,416Z"/><path class="cls-9" d="M319.81,430.64H262.36a3.39,3.39,0,0,0,.36,1.74l.7,1h55.86A12.18,12.18,0,0,0,319.81,430.64Z"/><path class="cls-5" d="M277.29,225.58s-3.81,37.82-3.81,57.25,6.94,57.95,9,69.75,9,48.92,9,51.69,0,6.25-2.08,7.64a4.39,4.39,0,0,0-2.08,4.16v2.08s16.65,8.33,23.94,8.68a63,63,0,0,0,9.71,0s-.69-15.62-.69-22.21.35-53.78.69-61.07,1.74-59.68,3.13-74.25,5.55-39.55,5.55-39.55l-51-8.33Z"/><path class="cls-9" d="M326.22,416s-15.62,5.9-21.51,8-5.56,7.29-4.86,8.33l.69,1H356.4a14.88,14.88,0,0,0-.34-9C354.32,419.19,326.22,416,326.22,416Z"/><path class="cls-9" d="M356.89,430.64H299.48a3.51,3.51,0,0,0,.37,1.74l.69,1H356.4A11.11,11.11,0,0,0,356.89,430.64Z"/><path class="cls-5" d="M307.13,230.09s.35,53.09,0,68.7,9,55.17,11.8,64.54,7.63,45.8,8,47.54-5.2,3.47-5.2,7.28S337,422,337,422s14.23,4.16,15.62,4.16a17.16,17.16,0,0,1,4.16,1.05,64.48,64.48,0,0,0,2.43-14.92,56.88,56.88,0,0,0-2.43-17s1.74-30.53.35-48.57-5.21-39.9-5.21-46.5,3.82-18.73,5.56-32.27,2.42-33.31,2.42-37.47-52-5.2-52-5.2Z"/><path class="cls-5" d="M320.32,122.19s-25.68,4.51-30.19,5.2-7.32,7.65-8.32,13.53-6.94,82.58-4.52,84.66,67.66,9,74.95,9.37,9.72.7,10.41-4.51,11.29-79.68,13.29-86.47c3.46-11.79-27.86-18-35.15-19.7S320.32,122.19,320.32,122.19Z"/><path class="cls-7" d="M354.81,127.89s-12.65,38-14.73,43.57-2.09,6.93-2.09,6.93l-42.67-9s4.51-21.51,6.24-27.41,5.87-17.53,5.87-17.53l-3.09.53s-10.06,32.27-12.49,40.94S278,202.34,277.29,211s-4.16,40.94-5.2,62.46.35,44.06.35,44.06,40.59,7.63,52.74,7.29S345,324.5,345,324.5s-1-41.29.35-54.47,5.9-37.48,5.9-37.48l11.1-.69.35-1.39-13.53-1s-7.31-47.95-7.31-49.69V177l15.31-48.19Z"/><path class="cls-10" d="M371,261.37s-8,11.45-8.59,13.36,1.27,9.87,1.27,12.41,3.18,2.55,3.18,2.55-1.59,4.13.32,5.73,10.18,1.27,11.77-1.6,8-12.72,8-17.5a68.68,68.68,0,0,0-1.59-11.77Z"/><path class="cls-4" d="M366.89,289.69s2.55-2.23,2.55-5.09S372,277,372,277"/><path class="cls-11" d="M371.67,254c-.32,1-2.55,7.64-.64,9.55s13.68,3.81,15,2.54,3.5-8.59,3.5-8.59Z"/><path class="cls-5" d="M358,180.23l12.73,29.27s-4.14,41.69-1.91,45.19,20.37,5.09,23.55,2.86,5.41-10.18,6.68-24.5-5.73-54.41-7.64-61.1-14.58-33.41-17.5-35.63-8.27-1.6-9.86-1"/><path class="cls-10" d="M245.66,142s-2.87-11.45-5.41-15.91-19.41-10.5-21.32-10.5-1.27,4.14-1.27,8,.63,10.5,4.77,15,11.45,7.64,11.45,7.64l2.23,5.41,11.46-6Z"/><path class="cls-4" d="M239.06,111.38l.6-2.66a5.35,5.35,0,0,0-4-6.39l-.2,0h0a5.34,5.34,0,0,0-5.89,3.1l-24.29,55.14"/><path class="cls-9" d="M180.05,156.63a12.86,12.86,0,0,0,25.7,0Z"/><path class="cls-4" d="M184.21,140.14a13,13,0,0,1,.73-2.95"/><path class="cls-4" d="M183.81,154.28c2.19-1.07,3.24-4.81,2.33-6.82a32.36,32.36,0,0,1-1.65-4"/><path class="cls-4" d="M191.68,154.28c2.2-1.07,3.24-4.81,2.34-6.82-1.11-2.45-1.88-4.09-2-5.91"/><path class="cls-4" d="M200,139.53a13.5,13.5,0,0,1,.64-2.34"/><path class="cls-4" d="M199.53,154.28c2.19-1.07,3.24-4.81,2.33-6.82a34.07,34.07,0,0,1-1.56-3.75"/><path class="cls-10" d="M221.47,115.63s-8.27-1.91-8.9-.32-.64,4.78.63,5.73,9.87,1.27,10.82,1S227.21,116.2,221.47,115.63Z"/><path class="cls-10" d="M223.53,123.21s-8.27-1.91-8.91-.31-.64,4.77.64,5.72,9.86,1.28,10.82,1S229.27,123.78,223.53,123.21Z"/><path class="cls-10" d="M224.31,129.72s-8.48-.48-8.84,1.2.18,4.81,1.6,5.54,9.94-.42,10.82-.9S230.06,129.31,224.31,129.72Z"/><path class="cls-10" d="M225.37,136.52s-7-.4-7.29,1,.15,4,1.32,4.58,8.21-.35,8.94-.74S230.12,136.17,225.37,136.52Z"/><path class="cls-10" d="M243.11,135s-2.23-12.41-3.5-14.63-12.73-8.28-15-9.55-6-2.86-6.69-.64a4.7,4.7,0,0,0,2.23,5.41c1.91,1.28,6.68,3.18,6.68,4.14s2.55,11.45,8,15.27"/><path class="cls-11" d="M246.86,142.33S231,150.39,232,152.47a23.51,23.51,0,0,1,1.56,5.46s16.64-7.54,16.9-9.1S248.68,143.37,246.86,142.33Z"/><path class="cls-9" d="M314.42,112.82s-1.73,15.61-1.73,22.2,2.12,18,15.26,13.54,17-20.82,17-24,1.39-26.37,1.39-26.37-9.37,10.07-17,12.49A47.77,47.77,0,0,1,314.42,112.82Z"/><path class="cls-7" d="M329.34,110.73a48.06,48.06,0,0,1-14.92,2.09s-.29,2.64-.64,6.2c3.39,1.82,8,2.39,11.53,2.58,9.32.53,15.6-8.56,20.57-15.46.26-4.43.46-7.9.46-7.9S337,108.31,329.34,110.73Z"/><path class="cls-7" d="M310.92,63.45S315,51,319.5,46.45s31.35-5.28,35.06-2,7,10.29,7.83,16.06-5.77,19-5.77,19Z"/><path class="cls-9" d="M309.91,70.83s-3.12,9.37-2.78,16,1.74,13.19,1.74,17.35-.69,7.64,3.12,10.76c3.38,2.76,9.12,3.5,13.32,3.74,9.83.55,16.28-9.6,21.38-16.58,0,0,9.71-1,10.41-6.59s-.89-8.13-.89-8.13l.41-7.83S324.14,63.55,309.91,70.83Z"/><path class="cls-7" d="M346,79.51s-2.09,9.71-.7,10.41,8.68-2.09,9-5.21S350.81,79.16,346,79.51Z"/><path class="cls-7" d="M308.42,72.1s16.07,2.47,28.84,6.59,18.95,8.65,18.95,8.65,4.12-7,3.71-10.71-18.11-10.3-32.55-13.18-16.89-2.48-18.12-.83S306.36,70.45,308.42,72.1Z"/><path class="cls-4" d="M320,79.85s-8.67,14.23-6.59,16.31,6.94,3.47,8.33,2.78"/><path class="cls-4" d="M313.38,102.41s18,5.2,21.86-4.51"/><line class="cls-4" x1="332.46" y1="96.51" x2="337.67" y2="98.59"/><ellipse class="cls-12" cx="330.9" cy="82.8" rx="1.56" ry="2.6"/><path class="cls-12" d="M317,79.33c0,1.44-.7,2.61-1.56,2.61s-1.56-1.17-1.56-2.61.7-2.6,1.56-2.6S317,77.9,317,79.33Z"/><path class="cls-4" d="M329.34,74.65s8.67.35,8.33,7.29"/><path class="cls-4" d="M317.89,72.57s-2.08-1.39-6.59,3.47"/><g id="freepik--Table--inject-2"><rect class="cls-9" x="183.22" y="292.17" width="9.82" height="141.26"/><rect class="cls-7" x="190.02" y="292.17" width="9.82" height="141.26"/><rect class="cls-9" x="230.05" y="292.17" width="9.82" height="141.26"/><rect class="cls-7" x="236.85" y="292.17" width="9.82" height="141.26"/><rect class="cls-9" x="334.29" y="292.17" width="9.82" height="141.26"/><rect class="cls-7" x="341.09" y="292.17" width="9.82" height="141.26"/><rect class="cls-9" x="381.13" y="292.17" width="9.82" height="141.26"/><rect class="cls-7" x="387.92" y="292.17" width="9.82" height="141.26"/><rect class="cls-9" x="177.17" y="286.88" width="230.39" height="12.09"/><rect class="cls-7" x="344.87" y="286.88" width="62.7" height="12.09"/><rect class="cls-9" x="169.62" y="283.86" width="241.72" height="6.04"/><rect class="cls-7" x="350.91" y="283.86" width="60.43" height="6.04"/><path class="cls-9" d="M274.72,227.91h-16.1v-5.44h16.1a2.62,2.62,0,0,1,2.62,2.62v.25A2.63,2.63,0,0,1,274.72,227.91Z"/><path class="cls-9" d="M192,211.65h76v64.08a8,8,0,0,1-8,8H200a8,8,0,0,1-8-8V211.65Z"/><path class="cls-7" d="M259,211.65v63.76a8.31,8.31,0,0,1-8.3,8.3h6.16a8.32,8.32,0,0,0,8.3-8.3V211.65Z"/><path class="cls-7" d="M203.81,211.65v63.76c0,4.58,6.65,8.3,11.23,8.3h-6.12a8.31,8.31,0,0,1-8.31-8.3V211.65Z"/><rect class="cls-9" x="189.37" y="209" width="81.32" height="6.61" rx="3.18"/><path class="cls-9" d="M182.62,222.47h16.1v5.44h-16.1a2.62,2.62,0,0,1-2.62-2.62V225A2.61,2.61,0,0,1,182.62,222.47Z"/><path class="cls-9" d="M192,222.47h16.1v5.44H192a2.62,2.62,0,0,1-2.62-2.62V225A2.61,2.61,0,0,1,192,222.47Z"/><rect class="cls-7" x="192.25" y="213.28" width="75.55" height="1.02"/><path class="cls-4" d="M231.2,186.82c-1.45-1.77-3.15-3.25-3.15-6.71a7.51,7.51,0,0,1,1.71-5"/><path class="cls-4" d="M228.05,204.24c0-6,5.16-6,5.16-12.06A9.08,9.08,0,0,0,233,190"/><path class="cls-4" d="M246.64,181.78a8.52,8.52,0,0,1-.54-3.2"/><path class="cls-4" d="M246.1,204.24c0-6.41,5.15-6.41,5.15-12.83,0-3.58-1.6-5.16-3-7"/><path class="cls-4" d="M207.43,181.11a8.83,8.83,0,0,1-.16-1.77,8.3,8.3,0,0,1,.5-3"/><path class="cls-4" d="M207.27,204.24c0-6.22,5.16-6.22,5.16-12.44a8.7,8.7,0,0,0-2.53-6.17"/><path class="cls-9" d="M378.74,227.91h-16.1v-5.44h16.1a2.62,2.62,0,0,1,2.62,2.62v.25A2.63,2.63,0,0,1,378.74,227.91Z"/><path class="cls-9" d="M296.07,211.65h76v64.08a8,8,0,0,1-8,8h-60a8,8,0,0,1-8-8V211.65Z"/><path class="cls-7" d="M363,211.65v63.76a8.32,8.32,0,0,1-8.31,8.3h6.14a8.31,8.31,0,0,0,8.3-8.3V211.65Z"/><path class="cls-7" d="M307.81,211.65v63.76c0,4.58,6.64,8.3,11.23,8.3h-6.13a8.31,8.31,0,0,1-8.3-8.3V211.65Z"/><rect class="cls-9" x="293.39" y="209" width="81.32" height="6.61" rx="3.18"/><path class="cls-9" d="M286.64,222.47h16.1v5.44h-16.1a2.62,2.62,0,0,1-2.62-2.62V225A2.61,2.61,0,0,1,286.64,222.47Z"/><path class="cls-9" d="M296,222.47h16.1v5.44H296a2.62,2.62,0,0,1-2.62-2.62V225A2.61,2.61,0,0,1,296,222.47Z"/><rect class="cls-7" x="296.28" y="213.28" width="75.55" height="1.02"/><rect class="cls-13" x="332.49" y="196.12" width="3.36" height="7.85" rx="1.62"/><path class="cls-13" d="M296.69,209l3.24-2.26A22.74,22.74,0,0,1,313,202.66h42.6A22.81,22.81,0,0,1,371.4,209Z"/></g><path class="cls-14" d="M102.47,152.53s4.15,7.11,5.92,11.25,4.15,9.48,1.78,8.29-4.74-2.66-6.81-2.66-2.66,2.37-3.55.59S102.47,152.53,102.47,152.53Z"/><path class="cls-5" d="M96.26,407.75s14.21,8.29,19.55,10.07,8.88,5,9.17,8.29l.3,3.25-.3,2.37H60.13a20.32,20.32,0,0,1-1.48-7.7c0-4.44,2.37-5.33,3.56-8s29.6-10.35,29.6-10.35Z"/><path class="cls-9" d="M59.27,429a16.51,16.51,0,0,0,.86,2.66H125l.3-2.37-.3-3.25c-.29-3.26-3.84-6.52-9.17-8.29V429Z"/><path class="cls-7" d="M112.24,266.52s2.08,3.55.3,5-2.67,2.08-2.67,2.08a11.77,11.77,0,0,1,.89,8c-1.18,4.15-6.51,21.61-6.51,29.9s.59,28.72-2.67,40.27-9.77,36.71-8.88,42.34,4.15,8.29,4.74,9.77a17.51,17.51,0,0,1,.59,5.63c0,1.77-6.22,9.77-16.58,13.61s-19,4.45-21,3.85-4.14-4.14-3.85-7.1,1.21-3.53,1.21-5.61-4.74-22.2-4.15-33.45,10.07-28.43,10.07-36.72-3-22.79-5.33-31.38-3-10.36-3-11.25-3.26-7.7-5.33-13.33-5-10.95-5-16.87A90.2,90.2,0,0,1,46,259.42l2.67-6.81s61.28,8.58,62.17,8.58S112.24,266.52,112.24,266.52Z"/><path class="cls-15" d="M117.47,239.27s15.63-7.81,18.17-10.56,0-9.08.84-9.08,5.91-2.11,6.34-4-.43-5.07.42-5.07,10.56-2.32,14.36-2.11,13.94.63,17.32-4.22,5.89-9.09,5.89-10.36-1-1.63-3.15-.18-19.87,1.87-24.73,1.87-6.75-.64-8.87,1-10.13,9.72-11.19,9.72-4.43-.42-6.33,1.69a8.12,8.12,0,0,0-5.07-1.27c-2.54.42-14.15,6.76-14.15,6.76Z"/><path class="cls-9" d="M101.88,165.26a12.48,12.48,0,0,1,.72,1.16,32.6,32.6,0,0,1,3.72,11.28c1.19,8,1.78,22.8,4.44,33.16s12.44,26,11,39.08-5.33,17.17-12.14,17.47S55.14,257.64,48,255.57s-8.59-.89-8-7.7,8-31.39,8.29-40.27-6.22-28.42,3-42.63,19.25-23.69,24.87-22.5S98,154.9,101.88,165.26Z"/><path class="cls-16" d="M88.26,78.22S98.62,73.78,106.91,75s16.58,7.7,18.36,12.14,3.26,6.51,3.26,9.47,0,3.85-.3,4.74l-.29.89s3,7.11,3.25,9.47,0,3.56-2.07,3.56h-2.07s-2.67,17.76-5,19.83-9.47,2.37-9.47,2.37-6.81,3-8.29,12.44S101,170.3,101,170.3s-15.1-27.54-16.87-33.46-2.67-10.07-2.67-10.07a21.33,21.33,0,0,0,3-9.17c.3-5-6.22-15.7-4.44-25.76S88.26,78.22,88.26,78.22Z"/><path class="cls-7" d="M122,135c1.84-1.6,3.85-12.63,4.67-17.51-1.93-1.47-10.92-2.89-14.44-1.14s-7.4,4.74-8,3.85-3.43-14.2-1.38-16.56,7.11-2.38,5.92-6.23-6.31-1.76-6.6-5,3-6.22-.89-7.1a16.32,16.32,0,0,0-8,.59c-.88,0-2.66-1.19-2.66-4.15A3.44,3.44,0,0,0,88,78.43c-1.31.85-6.43,4.67-8,13.43-1.78,10.06,4.74,20.72,4.44,25.76a21.06,21.06,0,0,1-2.57,8.5,6.83,6.83,0,0,0,4.35.38c3-.89,2.66-3.55,3.55-5.63s3.85-2.66,2.37-6.51,2.37-8,4.14-7.7,3.56,3.26,2.67,5-3,10.36-3,14.8,1.18,8.29,3.85,9.77,6.37,2.81,9,4a12.9,12.9,0,0,1,3.69-2.78S119.65,137.14,122,135Z"/><path class="cls-12" d="M122.9,103.38c0,1.15-.4,2.08-.89,2.08s-.88-.93-.88-2.08.39-2.07.88-2.07S122.9,102.24,122.9,103.38Z"/><path class="cls-9" d="M117.57,98A26,26,0,0,1,122.31,96c1.48-.29,3.85.89,3.55-1.48s-3.25-1.48-6.81-.59S115.5,96.87,117.57,98Z"/><path class="cls-4" d="M113.72,102.79a11,11,0,0,0,3,1.19"/><path class="cls-4" d="M116.68,105.16a4.11,4.11,0,0,1-3.55.59"/><path class="cls-4" d="M112.55,91.82s4.59-3.67,10.33-2.75"/><path class="cls-4" d="M115.07,86s5.74-1.6,8.27,0"/><path class="cls-9" d="M93.59,83.55c-.89,0-2.66-1.19-2.66-4.15S87.37,74.67,84.71,77,82.64,80.88,80,81.47s-8.29-1.18-9.18,4.45.3,7.1-.89,8.58-7.4,4.15-7.1,9.18,3.85,5,2.66,8-4.14,6.81.3,9.77,11.84-3.25,12.73-.88,5,4.44,8,3.55,2.67-3.55,3.56-5.63,3.85-2.66,2.37-6.51,2.36-8,4.14-7.7,3.55,3.26,2.67,5-3,10.36-3,14.8,1.18,8.29,3.84,9.77,6.81,3,9.48,4.15,11,4.73,13.62,2.36,4.14-8,4.14-13.32,1.48-10.36-.29-11.84-11-3-14.51-1.19-7.4,4.74-8,3.85-2.67-10.36-.6-12.73S111,99.8,109.83,96s-7.1-2.66-7.4-5.92,3-6.22-.89-7.1A16.25,16.25,0,0,0,93.59,83.55Z"/><path class="cls-4" d="M114.91,118.19a7.78,7.78,0,0,0,8.29,3.25"/><path class="cls-16" d="M99.69,108.35s-.46-4.13-5.51-4.82S88.67,111.1,90.74,115s4.82,1.83,4.82,1.83"/><path class="cls-5" d="M80.86,123.81s10.66,24.87,13.62,31.39,7.4,11.25,7.4,17.76,2.67,20.73,2.67,34.94,3.55,34.64,2.36,42.63-4.1,13.92-4.1,17.18.29,8-1.19,8-22.79-1.48-38.49-5.33-24.87-5.63-24.87-8,.89-6.81.89-8-3.55-3.55-1.77-11.54,3.55-32.87,4.14-50.63,7.7-33.46,12.44-40.57,13-12.13,13-12.13-4.73-5.63.89-9.18A93,93,0,0,1,80.86,123.81Z"/><path class="cls-4" d="M42.37,254.27A145.63,145.63,0,0,0,98.54,266"/><line class="cls-4" x1="49.12" y1="256.95" x2="47.91" y2="265.08"/><line class="cls-4" x1="58.06" y1="260.61" x2="56.84" y2="267.11"/><line class="cls-4" x1="67.81" y1="263.04" x2="67" y2="269.54"/><line class="cls-4" x1="76.75" y1="264.67" x2="76.34" y2="270.36"/><line class="cls-4" x1="86.9" y1="265.89" x2="86.9" y2="271.98"/><path class="cls-14" d="M94.48,155.2c-3-6.52-13.62-31.39-13.62-31.39a92.34,92.34,0,0,0-13,6.52c-5.62,3.55-.89,9.18-.89,9.18S77,154.31,80.3,161.12s2.37,5.33,5.33,10.07,4.44,8.58,5.33,7.1,8.29-8.59,10.06-8c.21.07.43.13.67.19C100.74,165.18,97.05,160.86,94.48,155.2Z"/><path class="cls-5" d="M135,185.69h56s-4.74,6.22-9.18,8.89-10.36,3-10.36,3H156.65S144.81,197.24,135,185.69Z"/><path class="cls-16" d="M133.26,201.09a29.29,29.29,0,0,0,6.22-7.7,12.51,12.51,0,0,1,8.59-6.81c3-.59,12.73-1.48,14.51-2.37s3,3.26,2.07,4.74-4.74,2.66-7.11,3a6.23,6.23,0,0,0-3.85,2.37,15.07,15.07,0,0,0,4.44,2.37c2.67.89,7.41,1.18,9.48,0s9.47-6.52,10.07-3-2.67,5-4.45,7.1-5,5.92-6.21,6.22-10.66.3-16.58.89-13,4.74-13,4.74l-5.33-11.55Z"/><path class="cls-14" d="M122.31,205.53s9.47-6.22,10.95-4.44,8.59,9.47,6.81,12.73-13.32,8.59-13.32,8.59Z"/><path class="cls-5" d="M77.6,161.42s6.81,7.4,9.48,14.21,8.88,26,9.77,27.53,2.37,4.15,2.37,4.15,15.39-4.15,18.65-4.44,6.51,2.66,8.58,6.51,8.89,15.39,5.93,18.36S103.66,244,96,247s-15.4,1.18-19-5-18.65-40.56-21.61-48.56-2.67-14.51-1.48-16.88"/><path class="cls-4" d="M88.26,226.85c1.48-9.48,11-19.54,11-19.54S88.6,212.64,85,217.08"/><g id="freepik--Floor--inject-2"><line class="cls-4" x1="8.8" y1="433.42" x2="465.46" y2="433.42"/></g></g></g></svg>