<svg xmlns="http://www.w3.org/2000/svg" viewBox="0 0 280.19 392.01"><defs><style>.cls-1{fill:#92e3a9;}.cls-2,.cls-3{fill:none;}.cls-10,.cls-2,.cls-4,.cls-5,.cls-6,.cls-7,.cls-8{stroke:#263238;}.cls-10,.cls-2,.cls-3,.cls-4,.cls-5,.cls-6,.cls-7,.cls-8{stroke-linecap:round;stroke-linejoin:round;}.cls-3{stroke:#fff;}.cls-4{fill:#ff5757;}.cls-5{fill:#fff;}.cls-6,.cls-9{fill:#263238;}.cls-7{fill:#828282;}.cls-8{fill:#bfbfbf;}.cls-10{fill:#5c5c5c;}</style></defs><g id="Layer_2" data-name="Layer 2"><g id="Layer_1-2" data-name="Layer 1"><path class="cls-1" d="M236.15,253.12s-1.33-3.31-7.84-6.09-10.56-4.23-10.56-4.23.74,8.56,6.92,11.47a88.35,88.35,0,0,0,13.88,4.82Z"/><path class="cls-2" d="M237.15,256.3s-5-2.57-10.18-5.11"/><line class="cls-3" x1="233.08" y1="348.01" x2="270.11" y2="348.01"/><line class="cls-3" x1="273.59" y1="348.01" x2="279.69" y2="348.01"/><path class="cls-4" d="M65.26,114.19s-2.6,2.6-2.34,5.2,22.36,49.15,24.7,52.53,9.1,4.42,12.23,2.6,15.34-14.82,15.34-14.82L114.58,93s-10.83,31-14,36-4.69,7.55-4.69,7.55-7-19.77-8.84-23.67a14.63,14.63,0,0,0-5.72-6Z"/><path class="cls-5" d="M120,374.12s-15.61,5.9-21.51,8-5.55,7.29-4.86,8.33l.7,1h55.86a14.73,14.73,0,0,0-.35-9C148.08,377.27,120,374.12,120,374.12Z"/><path class="cls-5" d="M150.69,388.72H93.24a3.5,3.5,0,0,0,.36,1.74l.7,1h55.86A11.17,11.17,0,0,0,150.69,388.72Z"/><path class="cls-4" d="M108.17,183.66s-3.81,37.82-3.81,57.25,6.94,58,9,69.75,9,48.92,9,51.69,0,6.25-2.08,7.64a4.41,4.41,0,0,0-2.08,4.16v2.08s16.65,8.33,23.94,8.68a60.54,60.54,0,0,0,9.71,0s-.69-15.62-.69-22.21.35-53.78.69-61.07S153.59,242,155,227.38s5.55-39.55,5.55-39.55l-51-8.33Z"/><path class="cls-5" d="M157.1,374.12s-15.62,5.9-21.51,8-5.56,7.29-4.86,8.33l.69,1h55.86a14.72,14.72,0,0,0-.34-9C185.2,377.27,157.1,374.12,157.1,374.12Z"/><path class="cls-5" d="M187.77,388.72H130.36a3.51,3.51,0,0,0,.37,1.74l.69,1h55.86A11.11,11.11,0,0,0,187.77,388.72Z"/><path class="cls-4" d="M138,188.17s.35,53.09,0,68.7,9,55.17,11.8,64.54,7.63,45.8,8,47.54-5.2,3.47-5.2,7.28,15.26,3.82,15.26,3.82,14.23,4.16,15.62,4.16a17.51,17.51,0,0,1,4.16,1.05,64,64,0,0,0,2.43-14.92,56.57,56.57,0,0,0-2.43-17s1.74-30.53.35-48.57-5.21-39.9-5.21-46.5,3.82-18.73,5.56-32.27,2.42-33.31,2.42-37.47-52-5.2-52-5.2Z"/><path class="cls-4" d="M151.2,80.27s-25.68,4.51-30.19,5.2-7.32,7.65-8.32,13.53-6.94,82.58-4.52,84.66,67.66,9,75,9.37,9.72.7,10.41-4.51,11.29-79.68,13.29-86.47c3.46-11.79-27.86-18-35.15-19.7S151.2,80.27,151.2,80.27Z"/><path class="cls-6" d="M185.69,86S173,124,171,129.54s-2.09,6.93-2.09,6.93l-42.67-9s4.51-21.51,6.24-27.41,5.87-17.53,5.87-17.53l-3.09.53S125.16,115.33,122.73,124s-13.86,36.42-14.56,45.12S104,210.06,103,231.58s.35,44.06.35,44.06,40.59,7.63,52.74,7.29,19.77-.35,19.77-.35-1-41.29.35-54.47,5.9-37.48,5.9-37.48l11.1-.69.35-1.39-13.53-1s-7.31-48-7.31-49.69v-2.74L188,86.93Z"/><path class="cls-7" d="M201.91,219.45s-8,11.45-8.59,13.36,1.27,9.87,1.27,12.41,3.18,2.55,3.18,2.55-1.59,4.13.32,5.73,10.18,1.27,11.77-1.6,8-12.72,8-17.5a66.76,66.76,0,0,0-1.59-11.77Z"/><path class="cls-2" d="M197.77,247.77s2.55-2.23,2.55-5.09,2.54-7.64,2.54-7.64"/><path class="cls-8" d="M202.55,212.12c-.32.95-2.55,7.64-.64,9.55s13.68,3.81,15,2.54,3.5-8.59,3.5-8.59Z"/><path class="cls-4" d="M188.86,138.31l12.73,29.27s-4.14,41.69-1.91,45.19,20.37,5.09,23.55,2.86,5.41-10.18,6.68-24.5-5.73-54.41-7.64-61.1-14.58-33.41-17.5-35.63-8.27-1.6-9.86-1"/><path class="cls-7" d="M76.54,100.12s-2.87-11.45-5.41-15.91-19.41-10.5-21.32-10.5-1.27,4.14-1.27,8,.63,10.5,4.77,15,11.45,7.64,11.45,7.64L67,109.71l11.46-6Z"/><path class="cls-2" d="M69.94,69.46l.6-2.66a5.34,5.34,0,0,0-4-6.39l-.2,0h0a5.37,5.37,0,0,0-5.89,3.1L36.13,118.61"/><path class="cls-5" d="M10.93,114.71a12.86,12.86,0,0,0,25.7,0Z"/><path class="cls-2" d="M15.09,98.22a13,13,0,0,1,.73-3"/><path class="cls-2" d="M14.69,112.36c2.19-1.07,3.24-4.81,2.33-6.82a32.36,32.36,0,0,1-1.65-4"/><path class="cls-2" d="M22.56,112.36c2.2-1.07,3.24-4.81,2.34-6.82-1.11-2.45-1.88-4.09-2-5.91"/><path class="cls-2" d="M30.87,97.61a14.46,14.46,0,0,1,.64-2.34"/><path class="cls-2" d="M30.41,112.36c2.19-1.07,3.24-4.81,2.33-6.82a36.13,36.13,0,0,1-1.56-3.75"/><path class="cls-7" d="M52.35,73.71s-8.27-1.91-8.9-.32-.64,4.78.63,5.73,9.87,1.27,10.82,1S58.09,74.28,52.35,73.71Z"/><path class="cls-7" d="M54.41,81.29S46.14,79.38,45.5,81s-.64,4.77.64,5.72S56,88,57,87.7,60.15,81.86,54.41,81.29Z"/><path class="cls-7" d="M55.19,87.8s-8.48-.48-8.84,1.2.18,4.81,1.6,5.54,9.94-.42,10.82-.9S60.94,87.39,55.19,87.8Z"/><path class="cls-7" d="M56.25,94.6s-7-.4-7.29,1,.15,4,1.32,4.58,8.21-.35,8.94-.74S61,94.25,56.25,94.6Z"/><path class="cls-7" d="M74,93.12s-2.23-12.41-3.5-14.63-12.73-8.28-15-9.55-6-2.86-6.69-.64A4.72,4.72,0,0,0,51,73.71c1.91,1.28,6.68,3.18,6.68,4.14s2.55,11.45,8,15.27"/><path class="cls-8" d="M77.74,100.41s-15.86,8.06-14.82,10.14A23,23,0,0,1,64.48,116s16.64-7.54,16.9-9.1S79.56,101.45,77.74,100.41Z"/><path class="cls-5" d="M145.3,70.9s-1.73,15.61-1.73,22.2,2.12,18,15.26,13.54,17-20.82,17-24,1.39-26.37,1.39-26.37-9.37,10.07-17,12.49A47.73,47.73,0,0,1,145.3,70.9Z"/><path class="cls-6" d="M160.22,68.81A47.73,47.73,0,0,1,145.3,70.9s-.29,2.64-.64,6.2c3.39,1.82,8,2.39,11.53,2.58,9.32.53,15.6-8.56,20.57-15.46.26-4.43.46-7.9.46-7.9S167.85,66.39,160.22,68.81Z"/><path class="cls-6" d="M141.8,21.53s4-12.43,8.58-17,31.35-5.28,35.06-2,7,10.29,7.83,16.06-5.77,19-5.77,19Z"/><path class="cls-5" d="M140.79,28.91s-3.12,9.37-2.78,16,1.74,13.19,1.74,17.35-.69,7.64,3.12,10.76c3.38,2.76,9.12,3.5,13.32,3.74,9.83.55,16.28-9.6,21.38-16.58,0,0,9.71-1,10.41-6.59s-.89-8.13-.89-8.13l.41-7.83S155,21.63,140.79,28.91Z"/><path class="cls-6" d="M176.88,37.59s-2.09,9.71-.7,10.41,8.68-2.09,9-5.21S181.69,37.24,176.88,37.59Z"/><path class="cls-6" d="M139.3,30.18s16.07,2.47,28.84,6.59,19,8.65,19,8.65,4.12-7,3.71-10.71-18.11-10.3-32.55-13.18-16.89-2.48-18.12-.83S137.24,28.53,139.3,30.18Z"/><path class="cls-2" d="M150.85,37.93s-8.67,14.23-6.59,16.31,6.94,3.47,8.33,2.78"/><path class="cls-2" d="M144.26,60.49s18,5.2,21.86-4.51"/><line class="cls-2" x1="163.34" y1="54.59" x2="168.55" y2="56.67"/><ellipse class="cls-9" cx="161.78" cy="40.88" rx="1.56" ry="2.6"/><path class="cls-9" d="M147.9,37.41c0,1.44-.7,2.61-1.56,2.61s-1.56-1.17-1.56-2.61.7-2.6,1.56-2.6S147.9,36,147.9,37.41Z"/><path class="cls-2" d="M160.22,32.73s8.67.35,8.33,7.29"/><path class="cls-2" d="M148.77,30.65s-2.08-1.39-6.59,3.47"/><g id="freepik--Table--inject-2"><rect class="cls-5" x="14.1" y="250.25" width="9.82" height="141.26"/><rect class="cls-6" x="20.9" y="250.25" width="9.82" height="141.26"/><rect class="cls-5" x="60.93" y="250.25" width="9.82" height="141.26"/><rect class="cls-6" x="67.73" y="250.25" width="9.82" height="141.26"/><rect class="cls-5" x="165.17" y="250.25" width="9.82" height="141.26"/><rect class="cls-6" x="171.97" y="250.25" width="9.82" height="141.26"/><rect class="cls-5" x="212.01" y="250.25" width="9.82" height="141.26"/><rect class="cls-6" x="218.8" y="250.25" width="9.82" height="141.26"/><rect class="cls-5" x="8.05" y="244.96" width="230.39" height="12.09"/><rect class="cls-6" x="175.75" y="244.96" width="62.7" height="12.09"/><rect class="cls-5" x="0.5" y="241.94" width="241.72" height="6.04"/><rect class="cls-6" x="181.79" y="241.94" width="60.43" height="6.04"/><path class="cls-5" d="M105.6,186H89.5v-5.44h16.1a2.62,2.62,0,0,1,2.62,2.62v.25A2.62,2.62,0,0,1,105.6,186Z"/><path class="cls-5" d="M22.92,169.73h76v64.08a8,8,0,0,1-8,8h-60a8,8,0,0,1-8-8V169.73Z"/><path class="cls-6" d="M89.83,169.73v63.76a8.3,8.3,0,0,1-8.3,8.3h6.16a8.31,8.31,0,0,0,8.3-8.3V169.73Z"/><path class="cls-6" d="M34.69,169.73v63.76c0,4.58,6.65,8.3,11.23,8.3H39.8a8.31,8.31,0,0,1-8.31-8.3V169.73Z"/><rect class="cls-5" x="20.25" y="167.08" width="81.32" height="6.61" rx="3.18"/><path class="cls-5" d="M13.5,180.55H29.6V186H13.5a2.62,2.62,0,0,1-2.62-2.62v-.25A2.62,2.62,0,0,1,13.5,180.55Z"/><path class="cls-5" d="M22.86,180.55H39V186H22.86a2.62,2.62,0,0,1-2.62-2.62v-.25A2.62,2.62,0,0,1,22.86,180.55Z"/><rect class="cls-6" x="23.13" y="171.36" width="75.55" height="1.02"/><path class="cls-2" d="M62.08,144.9c-1.45-1.77-3.15-3.25-3.15-6.71a7.58,7.58,0,0,1,1.71-5"/><path class="cls-2" d="M58.93,162.32c0-6,5.16-6,5.16-12.06a8.59,8.59,0,0,0-.26-2.14"/><path class="cls-2" d="M77.52,139.86a8.72,8.72,0,0,1-.54-3.2"/><path class="cls-2" d="M77,162.32c0-6.41,5.15-6.41,5.15-12.83,0-3.58-1.6-5.16-3-7"/><path class="cls-2" d="M38.31,139.19a9.48,9.48,0,0,1-.16-1.77,8.3,8.3,0,0,1,.5-3"/><path class="cls-2" d="M38.15,162.32c0-6.22,5.16-6.22,5.16-12.44a8.7,8.7,0,0,0-2.53-6.17"/><path class="cls-5" d="M209.62,186h-16.1v-5.44h16.1a2.62,2.62,0,0,1,2.62,2.62v.25A2.62,2.62,0,0,1,209.62,186Z"/><path class="cls-5" d="M127,169.73h76v64.08a8,8,0,0,1-8,8H135a8,8,0,0,1-8-8V169.73Z"/><path class="cls-6" d="M193.86,169.73v63.76a8.31,8.31,0,0,1-8.31,8.3h6.14a8.3,8.3,0,0,0,8.3-8.3V169.73Z"/><path class="cls-6" d="M138.69,169.73v63.76c0,4.58,6.64,8.3,11.23,8.3h-6.13a8.31,8.31,0,0,1-8.3-8.3V169.73Z"/><rect class="cls-5" x="124.27" y="167.08" width="81.32" height="6.61" rx="3.18"/><path class="cls-5" d="M117.52,180.55h16.1V186h-16.1a2.62,2.62,0,0,1-2.62-2.62v-.25A2.62,2.62,0,0,1,117.52,180.55Z"/><path class="cls-5" d="M126.88,180.55H143V186h-16.1a2.62,2.62,0,0,1-2.62-2.62v-.25A2.62,2.62,0,0,1,126.88,180.55Z"/><rect class="cls-6" x="127.16" y="171.36" width="75.55" height="1.02"/><rect class="cls-10" x="163.37" y="154.2" width="3.36" height="7.85" rx="1.62"/><path class="cls-10" d="M127.57,167.12l3.24-2.26a22.78,22.78,0,0,1,13.06-4.12h42.6a22.8,22.8,0,0,1,15.81,6.38Z"/></g><g id="freepik--Floor--inject-2"><line class="cls-2" x1="0.5" y1="391.5" x2="242.22" y2="391.5"/></g></g></g></svg>